<?xml version="1.0" encoding="UTF-8" standalone="no"?>
<!-- Created with Inkscape (http://www.inkscape.org/) -->

<svg
   width="210mm"
   height="210mm"
   viewBox="0 0 210 210"
   version="1.1"
   id="svg1"
   xmlns="http://www.w3.org/2000/svg"
   xmlns:svg="http://www.w3.org/2000/svg">
  <defs
     id="defs1" />
  <g
     id="layer1">
    <path
       d="m 29.25533,199.59137 c 1.032007,0.4456 2.579861,0.4456 3.61181,0.4456 3.611789,0 7.73956,-1.77953 9.28748,-5.33879 6.707613,-14.68155 15.479123,-27.13882 24.766599,-37.81639 25.282565,11.56741 56.756791,14.68173 78.943541,2.22446 36.63392,-21.35513 43.85752,-96.987755 41.27766,-141.477717 -0.516,-8.0081728 -11.35135,-11.567249 -18.05897,-5.78354 -54.17694,46.269331 -136.732294,44.93472 -142.407961,94.763297 -1.032007,10.67756 3.095825,21.35513 11.351353,30.25316 39.213785,-33.8124 81.007428,-45.379652 83.071328,-46.269511 0.51599,0 1.03199,0 1.5478,-0.44559 -11.35137,5.338776 -69.1401,34.702071 -99.066404,97.877771 -2.063897,4.89386 0.516004,9.78771 5.675667,11.56725 z"
       id="path10"
       style="fill:#f9f9f9;stroke-width:4.79118" />
  </g>
</svg>
