<?xml version="1.0" encoding="UTF-8" standalone="no"?>
<!-- Created with Inkscape (http://www.inkscape.org/) -->

<svg
   width="210mm"
   height="210mm"
   viewBox="0 0 210 210"
   version="1.1"
   id="svg1"
   xmlns="http://www.w3.org/2000/svg"
   xmlns:svg="http://www.w3.org/2000/svg">
  <defs
     id="defs1" />
  <g
     id="layer1">
    <path
       d="m 174.49032,84.067297 c -7.28642,0 -18.94473,1.931278 -30.11727,4.828189 9.71525,-5.311012 19.43049,-12.553277 24.77389,-17.864289 12.14404,-12.070451 15.05862,-28.486266 6.80068,-37.176994 -8.25798,-8.207918 -25.25966,-5.311008 -37.40373,6.759443 -5.3434,5.311007 -12.14406,14.484548 -17.97321,24.623729 2.91457,-10.621992 4.85762,-22.209632 4.85762,-29.934718 0,-16.898645 -9.71526,-30.9003816 -21.37356,-30.9003816 -11.658297,0 -21.373537,14.0017366 -21.373537,30.9003816 0,7.242274 1.943045,18.829913 4.85762,29.934718 C 82.195423,55.581024 74.908994,45.924653 69.565609,40.613646 57.421544,28.543195 40.905624,25.646285 32.16189,33.854203 c -8.257969,8.207898 -5.343393,25.106543 6.800683,37.176994 5.343376,5.311012 14.572881,12.070467 24.773885,17.864289 -10.686784,-2.896911 -22.830834,-4.828189 -30.117281,-4.828189 -17.001695,0 -31.0887968,9.656366 -31.0887968,21.243993 0,12.07045 14.0871018,21.24401 31.0887968,21.24401 7.286447,0 18.944747,-1.93127 30.117281,-4.82819 -9.715254,5.31101 -19.430509,12.55328 -24.773885,17.86429 -12.144076,12.07046 -15.058652,28.48627 -6.800683,37.177 8.257969,8.20791 25.259654,5.31101 37.403719,-6.75944 5.343385,-5.31101 12.144064,-14.48456 17.973214,-24.62373 -2.914575,10.62199 -4.85762,22.20962 -4.85762,29.93471 0,16.89864 9.71524,30.90038 21.373537,30.90038 12.14408,0 21.37356,-14.00174 21.37356,-30.90038 0,-7.24227 -1.94305,-18.8299 -4.85762,-29.93471 5.34338,9.65635 12.62981,19.31272 17.97321,24.62373 12.14407,12.07045 28.66001,14.96735 37.40373,6.75944 8.25794,-8.2079 5.34336,-25.10654 -6.80068,-37.177 -5.3434,-5.31101 -14.57288,-12.07046 -24.77389,-17.86429 10.68676,2.89692 22.83085,4.82819 30.11727,4.82819 17.00169,0 31.08881,-9.65636 31.08881,-21.24401 0,-11.587627 -14.08712,-21.243993 -31.08881,-21.243993 z m -70.43558,46.833373 c -14.087092,0 -25.259642,-11.10482 -25.259642,-25.10656 0,-14.001713 11.17255,-25.106547 25.259642,-25.106547 14.08713,0 25.25967,11.104834 25.25967,25.106547 0.48579,13.51893 -11.17254,25.10656 -25.25967,25.10656 z"
       id="path11"
       style="fill:#f9f9f9;stroke-width:4.84288" />
  </g>
</svg>
