<?xml version="1.0" encoding="UTF-8" standalone="no"?>
<!-- Created with Inkscape (http://www.inkscape.org/) -->

<svg
   width="210mm"
   height="210mm"
   viewBox="0 0 210 210"
   version="1.1"
   id="svg1"
   xmlns="http://www.w3.org/2000/svg"
   xmlns:svg="http://www.w3.org/2000/svg">
  <defs
     id="defs1" />
  <g
     id="layer1">
    <ellipse
       cx="105.10394"
       cy="104.66529"
       id="circle1"
       style="fill:#f9f9f9;stroke-width:4.45506"
       rx="44.690102"
       ry="44.411671" />
    <path
       d="m 105.10394,46.486029 c 5.36282,0 9.38493,-3.99713 9.38493,-9.326544 V 15.841892 c 0,-5.329414 -4.02211,-9.326373 -9.38493,-9.326373 -5.362803,0 -9.384911,3.996959 -9.384911,9.326373 v 21.317593 c 0,5.329414 4.469021,9.326544 9.384911,9.326544 z"
       id="path2"
       style="fill:#f9f9f9;stroke-width:4.45506" />
    <path
       d="m 50.582039,63.806492 c 1.787591,1.776585 4.022108,2.664696 6.703502,2.664696 2.234501,0 4.915911,-0.88794 6.703519,-2.664696 3.575197,-3.552829 3.575197,-9.326374 0,-13.323504 L 48.347522,35.38307 c -3.575215,-3.552978 -9.384913,-3.552978 -13.407037,0 -3.575208,3.553 -3.575208,9.326374 0,13.323504 z"
       id="path3"
       style="fill:#f9f9f9;stroke-width:4.45506" />
    <path
       d="m 37.175002,113.99166 c 5.362805,0 9.384929,-3.99696 9.384929,-9.32638 0,-5.329389 -4.022124,-9.326519 -9.384929,-9.326519 h -21.45125 c -5.362811,0 -9.3849209,3.99713 -9.3849209,9.326519 0,5.32942 4.0221099,9.32638 9.3849209,9.32638 z"
       id="path4"
       style="fill:#f9f9f9;stroke-width:4.45506" />
    <path
       d="m 50.582039,145.96806 -15.194644,15.10009 c -3.575205,3.55282 -3.575205,9.32637 0,13.3235 1.787607,1.77641 4.022107,2.6647 6.703502,2.6647 2.234517,0 4.915928,-0.88797 6.703518,-2.6647 L 63.98906,159.29156 c 3.575197,-3.55281 3.575197,-9.32637 0,-13.3235 -4.022108,-3.55281 -9.831823,-3.55281 -13.407021,0 z"
       id="path5"
       style="fill:#f9f9f9;stroke-width:4.45506" />
    <path
       d="m 95.719029,172.17108 v 21.31762 c 0,5.32939 4.022108,9.32637 9.384911,9.32637 5.36282,0 9.38493,-3.99698 9.38493,-9.32637 v -21.31762 c 0,-5.32939 -4.02211,-9.32652 -9.38493,-9.32652 -4.91589,0 -9.384911,3.99713 -9.384911,9.32652 z"
       id="path6"
       style="fill:#f9f9f9;stroke-width:4.45506" />
    <path
       d="m 146.66575,145.96806 c -3.5752,3.553 -3.5752,9.32654 0,13.3235 l 15.19464,15.10009 c 1.7876,1.77641 4.02211,2.6647 6.70352,2.6647 2.23449,0 4.9159,-0.88797 6.70351,-2.6647 3.57519,-3.553 3.57519,-9.32655 0,-13.3235 l -15.19465,-15.10009 c -4.02211,-3.55281 -9.83181,-3.55281 -13.40702,0 z"
       id="path7"
       style="fill:#f9f9f9;stroke-width:4.45506" />
    <path
       d="m 194.48415,95.338761 h -21.45124 c -5.36282,0 -9.38492,3.99713 -9.38492,9.326519 0,5.32942 4.0221,9.32638 9.38492,9.32638 h 21.45124 c 5.36282,0 9.38493,-3.99696 9.38493,-9.32638 0,-4.885237 -4.02211,-9.326519 -9.38493,-9.326519 z"
       id="path8"
       style="fill:#f9f9f9;stroke-width:4.45506" />
    <path
       d="m 153.36925,66.471188 c 2.23452,0 4.91593,-0.88794 6.70352,-2.664696 l 15.19465,-15.099918 c 3.57519,-3.552979 3.57519,-9.326523 0,-13.323504 -3.57522,-3.552978 -9.38492,-3.552978 -13.40703,0 l -15.19464,15.099918 c -3.5752,3.553 -3.5752,9.326545 0,13.323504 1.78761,1.776585 4.02211,2.664696 6.7035,2.664696 z"
       id="path9"
       style="fill:#f9f9f9;stroke-width:4.45506" />
  </g>
</svg>
