<?xml version="1.0" encoding="UTF-8" standalone="no"?>
<!-- Created with Inkscape (http://www.inkscape.org/) -->

<svg
   width="210mm"
   height="210mm"
   viewBox="0 0 210 210"
   version="1.1"
   id="svg1"
   xmlns="http://www.w3.org/2000/svg"
   xmlns:svg="http://www.w3.org/2000/svg">
  <defs
     id="defs1" />
  <g
     id="layer1">
    <path
       d="m 200.15841,144.76572 -21.57111,-11.18461 17.88821,-7.45639 c 4.20905,-1.86412 6.3135,-6.05835 5.26138,-9.78653 -1.57888,-4.19424 -7.36583,-6.52437 -12.10106,-4.66027 l -29.46291,12.58268 -22.62343,-11.65063 c -6.31351,-3.26217 -6.31351,-11.1846 0,-14.44677 l 22.62343,-11.650653 29.98906,12.116669 c 1.05193,0.466051 2.6306,0.932101 3.68293,0.932101 3.6829,0 6.83965,-1.8641 8.41795,-5.126284 1.57885,-3.728201 -1.05193,-7.922435 -5.2612,-9.786518 l -17.88821,-7.456401 21.57111,-11.184602 c 4.20908,-1.864118 5.78735,-6.524369 4.20908,-10.252569 -2.10463,-4.194234 -7.89198,-6.058335 -12.627,-3.728201 l -22.09729,11.650636 2.10443,-17.242937 c 0.52697,-4.194234 -2.63058,-7.922435 -6.83966,-8.854485 -5.2612,-0.932118 -9.99643,2.330117 -10.52258,6.990368 l -3.68272,28.893572 -22.62344,11.650635 C 122.29188,87.910682 114.3999,84.182413 114.3999,77.65813 V 54.356859 l 26.30634,-16.776903 c 3.68293,-2.330117 5.2612,-6.990385 2.6306,-10.252552 -2.6306,-4.194234 -8.41795,-5.126291 -12.62701,-2.330139 L 114.3999,35.249839 V 13.346638 c 0,-4.1942271 -3.15675,-7.9224363 -7.89178,-7.9224363 -5.2614,-0.4660539 -9.470274,3.2621892 -9.470274,7.9224363 V 35.715856 L 80.727913,25.463302 c -3.682904,-2.330132 -8.944102,-1.864114 -12.100854,0.932103 -3.682904,3.728218 -2.630575,8.854502 1.57888,11.650653 L 97.038456,54.82296 v 23.301255 c 0,6.524368 -7.891984,10.252568 -14.205511,6.990384 L 60.209532,73.463981 57.052757,45.036442 c -0.524956,-4.194234 -4.208869,-7.456418 -8.944102,-7.456418 -5.261174,0 -9.470254,4.194217 -8.944101,8.388451 L 41.269,63.677446 19.697892,52.492827 C 15.489,50.628743 10.227614,51.094845 7.5970154,54.356927 4.440264,58.085145 6.018159,63.211429 10.227614,65.541529 l 21.571131,11.184619 -17.888203,7.456418 c -4.2090803,1.864083 -6.3135266,6.058318 -5.2611979,9.786518 1.0519066,3.262184 4.7350219,5.126268 8.4179489,5.126268 1.051907,0 2.630599,0 3.682904,-0.932101 L 51.26543,86.978649 73.888843,98.629267 c 6.313527,3.262163 6.313527,11.184603 0,14.446783 L 51.26543,124.26066 21.27635,112.144 c -4.735233,-1.8641 -10.522583,0 -12.1008533,4.66025 -1.5788799,3.72822 1.0519303,7.92244 5.2611973,9.78654 l 17.888204,7.4564 -21.571131,11.1846 c -3.6829042,1.86412 -5.787327,6.05834 -4.2090568,9.78654 1.5788799,3.26218 4.7352328,5.12628 8.4181368,5.12628 1.57888,0 3.156752,-0.46605 4.208869,-0.93212 l 21.571319,-11.1846 -2.104634,17.70897 c -0.52695,4.19422 2.630599,7.92244 7.365832,8.85447 0.526949,0 1.051906,0 1.051906,0 4.735045,0 8.417949,-3.26217 8.944102,-6.99037 l 3.156775,-28.89357 22.623413,-11.65064 c 6.313526,-3.26216 14.205299,0.93211 14.205299,6.99039 v 23.30127 l -26.30634,16.7769 c -3.682716,2.33014 -5.261198,6.99039 -2.630599,10.25256 1.57888,2.33013 4.735233,3.72821 7.891984,3.72821 1.57888,0 3.682904,-0.46606 5.261198,-1.398 l 16.30991,-10.25255 v 21.90319 c 0,4.19422 3.156775,7.92243 7.891799,7.92243 5.26138,0.46605 9.47025,-3.26218 9.47025,-7.92243 v -22.83524 l 16.30994,10.25255 c 1.57888,0.9321 3.15675,1.39799 5.26138,1.39799 3.15675,0 5.78735,-1.39799 7.8918,-3.72819 2.6306,-3.2622 1.0519,-7.92243 -2.6306,-10.25257 l -26.30634,-16.77692 v -23.30125 c 0,-6.52435 7.89198,-10.25257 14.20549,-6.99037 l 22.62343,11.65062 3.15675,28.89357 c 0.52496,4.19424 4.20887,6.99039 8.9441,6.99039 0.52695,0 1.05191,0 1.05191,0 4.73523,-0.46605 7.89199,-4.66027 7.36583,-8.85449 l -2.10442,-17.24293 21.57111,11.1846 c 1.57888,0.93212 3.15675,0.93212 4.20908,0.93212 3.68269,0 6.83947,-1.86412 8.41792,-5.12629 2.10445,-3.72822 0,-7.92243 -3.6829,-9.78653 z"
       id="path1"
       style="fill:#f9f9f9;stroke-width:4.95164" />
  </g>
</svg>
